# xmcd
#
# Track frame offsets:
#	150
#	19258
#	37119
#	61350
#	77506
#	89011
#	104652
#	116874
#	134193
#	155112
#	171024
#
# Disc length: 2635 seconds
#
# Revision: 1
# Processed by: cddbd v1.5.2PL0 Copyright (c) Steve Scherf et al.
# Submitted via: audiograbber 1.83.01
#
DISCID=a20a490b
DTITLE=Eddie Seville - Ragged Hearts
DYEAR=2014
DGENRE=Blues
TTITLE0=A Crooked Mile
TTITLE1=The Queen Of Kerosene
TTITLE2=Ashes To Ashes
TTITLE3=Love´s got a hold
TTITLE4=Dougie´s Blues
TTITLE5=I´m Pacing Myself
TTITLE6=Horseshit
TTITLE7=Blind Love
TTITLE8=The Last Train
TTITLE9=Save My Soul
TTITLE10=The Hardest Thing To Do
EXTD=
EXTT0=
EXTT1=
EXTT2=
EXTT3=
EXTT4=
EXTT5=
EXTT6=
EXTT7=
EXTT8=
EXTT9=
EXTT10=
PLAYORDER=
